P3
4 4 15
0 0 0  0 1 1  1 1 0  4 3 1  
0 1 1  1 3 2  1 3 1  1 1 0  
1 1 0  1 3 1  1 3 2  0 1 1  
4 3 1  1 1 0  0 1 1  0 0 0  
